<?xml version="1.0"?>
<svg width="640" height="480" xmlns="http://www.w3.org/2000/svg" xmlns:svg="http://www.w3.org/2000/svg" xmlns:xlink="http://www.w3.org/1999/xlink">
 <!-- Created with SVG-edit - http://svg-edit.googlecode.com/ -->
 <defs>
  <symbol id="svg_1" viewBox="0 0 50 62.5" y="0px" x="0px" xmlns:xlink="http://www.w3.org/1999/xlink" xmlns="http://www.w3.org/2000/svg">
   <g>
    <g>
     <g>
      <circle r="2.042" cy="32.886" cx="21.522" fill="#000000"/>
      <circle r="2.043" cy="32.886" cx="29.08" fill="#000000"/>
      <rect height="2" width="7" fill="#000000" y="40" x="22"/>
     </g>
     <polygon points="37,26 14,26 14,17 16,17 16,24 35,24 35,17 37,17   " fill="#000000"/>
     <path d="m35.416,18.416c-1.82,0 -3.582,-0.566 -5.059,-1.613c-1.477,1.047 -3.236,1.613 -5.058,1.613c-1.82,0 -3.58,-0.566 -5.056,-1.613c-1.477,1.047 -3.237,1.613 -5.059,1.613c-4.838,0 -8.774,-3.937 -8.774,-8.775s3.937,-8.775 8.774,-8.775c1.822,0 3.582,0.566 5.059,1.612c1.475,-1.046 3.234,-1.612 5.056,-1.612c1.822,0 3.582,0.566 5.058,1.612c1.477,-1.046 3.236,-1.612 5.059,-1.612c4.838,0 8.773,3.937 8.773,8.775s-3.935,8.775 -8.773,8.775zm-5.059,-4.97l0.859,0.785c1.156,1.058 2.646,1.64 4.199,1.64c3.436,0 6.229,-2.795 6.229,-6.23s-2.793,-6.23 -6.229,-6.23c-1.553,0 -3.045,0.582 -4.199,1.639l-0.859,0.785l-0.857,-0.786c-1.156,-1.057 -2.648,-1.639 -4.201,-1.639c-1.552,0 -3.042,0.582 -4.196,1.638l-0.859,0.786l-0.858,-0.785c-1.155,-1.057 -2.647,-1.639 -4.2,-1.639c-3.435,0 -6.229,2.795 -6.229,6.23s2.795,6.23 6.229,6.23c1.553,0 3.044,-0.582 4.2,-1.64l0.858,-0.785l0.859,0.786c1.154,1.057 2.645,1.639 4.196,1.639c1.552,0 3.044,-0.582 4.201,-1.64l0.857,-0.784z" fill="#000000"/>
    </g>
    <g>
     <path d="m36.615,24l-3.043,0c1.984,2 3.211,6.029 3.211,9.929c0,6.845 -9.162,11.871 -11.48,13.048c-2.319,-1.177 -11.483,-6.173 -11.483,-13.018c0,-3.899 1.228,-7.959 3.211,-9.959l-3.031,0l0,-0.368c-2,2.846 -2.758,6.36 -2.758,10.176c0,9.436 12.966,15.433 13.518,15.684l0.535,0.239l0.532,-0.239c0.55,-0.251 13.5,-6.127 13.5,-15.563c-0.001,-3.759 -1.014,-6.929 -2.712,-9.929z" fill="#000000"/>
    </g>
   </g>
   <text font-family="&#x27;Helvetica Neue', Helvetica, Arial-Unicode, Arial, Sans-serif" font-weight="bold" font-size="5px" fill="#000000" y="65" x="0">Created by Mister Pixel</text>
   <text font-family="&#x27;Helvetica Neue', Helvetica, Arial-Unicode, Arial, Sans-serif" font-weight="bold" font-size="5px" fill="#000000" y="70" x="0">from the Noun Project</text>
  </symbol>
 </defs>
 <g>
  <title>Layer 1</title>
  <use x="46.385643" y="-243.384169" transform="matrix(1.1941121798188723,0,0,1.0295750905277878,-130.7589663704445,295.6000140401915) " xlink:href="#svg_1" id="svg_2"/>
  <g id="svg_3"/>
 </g>
</svg>